<?xml version="1.0" encoding="UTF-8"?>
<svg width="752pt" height="752pt" version="1.1" viewBox="0 0 752 752" xmlns="http://www.w3.org/2000/svg">
 <g>
  <path fill="#5f2da1" d="m168.2 370.35c-2.3672-0.59766-4.6016 1.8594-5.1367 4.0078-0.72266 2.9023 1 6.043 3.7656 7.1055 2.5898 0.98828 5.8125 0.03125 7.3789-2.2734 1.625-2.3867 1.0664-5.7031-1.0195-7.6328-1.418-1.3242-3.2891-1.6758-4.9883-1.207z"/>
  <path fill="#5f2da1" d="m185.5 372.31c-1.668-0.14062-2.8086 1.4336-2.9375 2.9805-0.097656 1.2031 0.39453 2.1914 1.1562 2.8594 0.44531 0.66797 1.0859 1.2031 1.8945 1.4219 1.3359 0.35547 2.8125-0.1875 3.7227-1.2031 0.98047-1.0938 1.5-2.9922 0.33203-4.1328-1.082-1.0625-2.6523-1.7969-4.168-1.9258z"/>
  <path fill="#5f2da1" d="m205.04 370.35c-2.3672-0.59766-4.6016 1.8594-5.1367 4.0078-0.72266 2.9023 1 6.043 3.7656 7.1055 2.5898 0.98828 5.8125 0.03125 7.3789-2.2734 1.625-2.3867 1.0664-5.7031-1.0195-7.6328-1.418-1.3242-3.293-1.6758-4.9883-1.207z"/>
  <path fill="#5f2da1" d="m222.34 372.31c-1.668-0.14062-2.8086 1.4336-2.9375 2.9805-0.097656 1.2031 0.39453 2.1914 1.1562 2.8594 0.44531 0.66797 1.0859 1.2031 1.8945 1.4219 1.3359 0.35547 2.8125-0.1875 3.7227-1.2031 0.98047-1.0938 1.5-2.9922 0.33203-4.1328-1.082-1.0625-2.6602-1.7969-4.168-1.9258z"/>
  <path fill="#5f2da1" d="m240.29 370.35c-2.3672-0.59766-4.6016 1.8594-5.1367 4.0078-0.72266 2.9023 1 6.043 3.7656 7.1055 2.5898 0.98828 5.8125 0.03125 7.3789-2.2734 1.625-2.3867 1.0664-5.7031-1.0195-7.6328-1.418-1.3242-3.293-1.6758-4.9883-1.207z"/>
  <path fill="#5f2da1" d="m257.6 372.31c-1.668-0.14062-2.8086 1.4336-2.9375 2.9805-0.097656 1.2031 0.39453 2.1914 1.1562 2.8594 0.44531 0.66797 1.0859 1.2031 1.8945 1.4219 1.3359 0.35547 2.8125-0.1875 3.7227-1.2031 0.98047-1.0938 1.5078-2.9922 0.33203-4.1328-1.0859-1.0625-2.6562-1.7969-4.168-1.9258z"/>
  <path fill="#5f2da1" d="m277.13 370.35c-2.3672-0.59766-4.6016 1.8594-5.1367 4.0078-0.72266 2.9023 1 6.043 3.7656 7.1055 2.5898 0.98828 5.8125 0.03125 7.3789-2.2734 1.625-2.3867 1.0664-5.7031-1.0195-7.6328-1.418-1.3242-3.2891-1.6758-4.9883-1.207z"/>
  <path fill="#5f2da1" d="m294.44 372.31c-1.668-0.14062-2.8086 1.4336-2.9375 2.9805-0.097656 1.2031 0.39453 2.1914 1.1562 2.8594 0.44531 0.66797 1.0859 1.2031 1.8945 1.4219 1.3359 0.35547 2.8125-0.1875 3.7227-1.2031 0.98047-1.0938 1.5078-2.9922 0.33203-4.1328-1.0859-1.0625-2.6562-1.7969-4.168-1.9258z"/>
  <path fill="#5f2da1" d="m312.14 370.35c-2.3672-0.59766-4.6016 1.8594-5.1367 4.0078-0.72266 2.9023 1 6.043 3.7656 7.1055 2.5898 0.98828 5.8125 0.03125 7.3789-2.2734 1.625-2.3867 1.0664-5.7031-1.0195-7.6328-1.418-1.3242-3.293-1.6758-4.9883-1.207z"/>
  <path fill="#5f2da1" d="m329.45 372.31c-1.668-0.14062-2.8086 1.4336-2.9375 2.9805-0.097656 1.2031 0.39453 2.1914 1.1562 2.8594 0.44531 0.66797 1.0859 1.2031 1.8945 1.4219 1.3359 0.35547 2.8125-0.1875 3.7227-1.2031 0.98047-1.0938 1.5078-2.9922 0.33203-4.1328-1.082-1.0625-2.6602-1.7969-4.168-1.9258z"/>
  <path fill="#5f2da1" d="m348.98 370.35c-2.3672-0.59766-4.6016 1.8594-5.1367 4.0078-0.72266 2.9023 1 6.043 3.7656 7.1055 2.5898 0.98828 5.8125 0.03125 7.3789-2.2734 1.625-2.3867 1.0664-5.7031-1.0195-7.6328-1.418-1.3242-3.293-1.6758-4.9883-1.207z"/>
  <path fill="#5f2da1" d="m366.29 372.31c-1.668-0.14062-2.8086 1.4336-2.9375 2.9805-0.097656 1.2031 0.39453 2.1914 1.1562 2.8594 0.44531 0.66797 1.0859 1.2031 1.8945 1.4219 1.3359 0.35547 2.8125-0.1875 3.7227-1.2031 0.98047-1.0938 1.5078-2.9922 0.33203-4.1328-1.0859-1.0625-2.6602-1.7969-4.168-1.9258z"/>
  <path fill="#5f2da1" d="m384.23 370.35c-2.3672-0.59766-4.6016 1.8594-5.1367 4.0078-0.72266 2.9023 1 6.043 3.7656 7.1055 2.5898 0.98828 5.8125 0.03125 7.3789-2.2734 1.625-2.3867 1.0664-5.7031-1.0195-7.6328-1.4141-1.3242-3.2852-1.6758-4.9883-1.207z"/>
  <path fill="#5f2da1" d="m401.54 372.31c-1.668-0.14062-2.8086 1.4336-2.9375 2.9805-0.097657 1.2031 0.39453 2.1914 1.1562 2.8594 0.44531 0.66797 1.0859 1.2031 1.8945 1.4219 1.3359 0.35547 2.8125-0.1875 3.7227-1.2031 0.98047-1.0938 1.5078-2.9922 0.33203-4.1328-1.0859-1.0625-2.6602-1.7969-4.168-1.9258z"/>
  <path fill="#5f2da1" d="m421.07 370.35c-2.3672-0.59766-4.6016 1.8594-5.1367 4.0078-0.72266 2.9023 1 6.043 3.7656 7.1055 2.5898 0.98828 5.8125 0.03125 7.3789-2.2734 1.625-2.3867 1.0664-5.7031-1.0195-7.6328-1.4141-1.3242-3.293-1.6758-4.9883-1.207z"/>
  <path fill="#5f2da1" d="m438.38 372.31c-1.668-0.14062-2.8086 1.4336-2.9375 2.9805-0.097656 1.2031 0.39453 2.1914 1.1562 2.8594 0.44531 0.66797 1.0859 1.2031 1.8945 1.4219 1.3359 0.35547 2.8125-0.1875 3.7227-1.2031 0.98047-1.0938 1.5078-2.9922 0.33203-4.1328-1.0781-1.0625-2.6562-1.7969-4.168-1.9258z"/>
  <path fill="#5f2da1" d="m458.03 370.35c-2.3672-0.59766-4.6016 1.8594-5.1367 4.0078-0.72266 2.9023 1 6.043 3.7656 7.1055 2.5898 0.98828 5.8125 0.03125 7.3789-2.2734 1.625-2.3867 1.0664-5.7031-1.0195-7.6328-1.418-1.3242-3.293-1.6758-4.9883-1.207z"/>
  <path fill="#5f2da1" d="m475.34 372.31c-1.668-0.14062-2.8086 1.4336-2.9375 2.9805-0.097657 1.2031 0.39453 2.1914 1.1562 2.8594 0.44531 0.66797 1.0859 1.2031 1.8945 1.4219 1.3359 0.35547 2.8125-0.1875 3.7227-1.2031 0.98047-1.0938 1.5078-2.9922 0.33203-4.1328-1.082-1.0625-2.6562-1.7969-4.168-1.9258z"/>
  <path fill="#5f2da1" d="m494.87 370.35c-2.3672-0.59766-4.6016 1.8594-5.1367 4.0078-0.72266 2.9023 1 6.043 3.7656 7.1055 2.5898 0.98828 5.8125 0.03125 7.3789-2.2734 1.625-2.3867 1.0664-5.7031-1.0195-7.6328-1.418-1.3242-3.293-1.6758-4.9883-1.207z"/>
  <path fill="#5f2da1" d="m512.18 372.31c-1.668-0.14062-2.8086 1.4336-2.9375 2.9805-0.097656 1.2031 0.39453 2.1914 1.1562 2.8594 0.44531 0.66797 1.0859 1.2031 1.8945 1.4219 1.3359 0.35547 2.8125-0.1875 3.7227-1.2031 0.98047-1.0938 1.5078-2.9922 0.33203-4.1328-1.0859-1.0625-2.6562-1.7969-4.168-1.9258z"/>
  <path fill="#5f2da1" d="m530.12 370.35c-2.3672-0.59766-4.6016 1.8594-5.1367 4.0078-0.72266 2.9023 1 6.043 3.7656 7.1055 2.5898 0.98828 5.8125 0.03125 7.3789-2.2734 1.625-2.3867 1.0664-5.7031-1.0195-7.6328-1.4141-1.3242-3.2891-1.6758-4.9883-1.207z"/>
  <path fill="#5f2da1" d="m547.43 372.31c-1.668-0.14062-2.8086 1.4336-2.9375 2.9805-0.097656 1.2031 0.39453 2.1914 1.1562 2.8594 0.44531 0.66797 1.0859 1.2031 1.8945 1.4219 1.3359 0.35547 2.8125-0.1875 3.7227-1.2031 0.98047-1.0938 1.5078-2.9922 0.33203-4.1328-1.0859-1.0625-2.6562-1.7969-4.168-1.9258z"/>
  <path fill="#5f2da1" d="m566.96 370.35c-2.3672-0.59766-4.6016 1.8594-5.1367 4.0078-0.72266 2.9023 1 6.043 3.7656 7.1055 2.5898 0.98828 5.8125 0.03125 7.3789-2.2734 1.625-2.3867 1.0664-5.7031-1.0195-7.6328-1.418-1.3242-3.2891-1.6758-4.9883-1.207z"/>
  <path fill="#5f2da1" d="m588.44 374.23c-1.0859-1.0625-2.6602-1.7891-4.1719-1.918-1.668-0.14062-2.8086 1.4336-2.9375 2.9805-0.097656 1.2031 0.39453 2.1914 1.1562 2.8594 0.44531 0.66797 1.0859 1.2031 1.8945 1.4219 1.3359 0.35547 2.8125-0.1875 3.7227-1.2031 0.98438-1.1016 1.5078-3 0.33594-4.1406z"/>
 </g>
</svg>
